<svg xmlns="http://www.w3.org/2000/svg" width="1080" height="1920" viewBox="0 0 1080 1920">
  <defs>
    <linearGradient id="base" x2="1" y2="1"><stop stop-color="#123f35"/><stop offset=".6" stop-color="#082b26"/><stop offset="1" stop-color="#122d2b"/></linearGradient>
    <radialGradient id="clay"><stop stop-color="#c3753e" stop-opacity=".65"/><stop offset="1" stop-color="#c3753e" stop-opacity="0"/></radialGradient>
    <radialGradient id="ball" cx=".3" cy=".25"><stop stop-color="#d5d873"/><stop offset=".6" stop-color="#939e41"/><stop offset="1" stop-color="#515e2a"/></radialGradient>
    <pattern id="dust" width="37" height="43" patternUnits="userSpaceOnUse"><circle cx="4" cy="6" r="1.5" fill="#cf8750" opacity=".5"/><circle cx="27" cy="32" r="1" fill="#e5b77b" opacity=".5"/><circle cx="16" cy="19" r="2" fill="#b46436" opacity=".35"/></pattern>
    <pattern id="strings" width="23" height="23" patternUnits="userSpaceOnUse"><path d="M0 0H23M0 0V23" stroke="#accaba" stroke-opacity=".18" stroke-width="1.5"/></pattern>
  </defs>
  <path fill="url(#base)" d="M0 0H1080V1920H0Z"/>
  <g fill="none" stroke="#9abdab" stroke-opacity=".1" stroke-width="8" transform="rotate(-24 300 600)"><path d="M-80-200H560V2100H-80Z M-15-200V2100 M495-200V2100 M-15 650H495 M-15 1250H495 M240 650V1250"/></g>
  <ellipse cx="1030" cy="1880" rx="470" ry="260" fill="url(#clay)"/>
  <ellipse cx="20" cy="1910" rx="550" ry="210" fill="url(#clay)"/>
  <path d="M0 1810Q500 1980 1080 1810V1920H0Z M990 0H1080V720L1050 420Z" fill="url(#dust)"/>
  <path d="M-70 1800L160 1960" stroke="#e7cda2" stroke-width="15" opacity=".17"/>
  <g transform="rotate(28 1080 630)" opacity=".6"><ellipse cx="1100" cy="600" rx="135" ry="260" fill="url(#strings)" stroke="#8fa99b" stroke-opacity=".2" stroke-width="7"/><path d="M1090 860V1050" stroke="#8fa99b" stroke-opacity=".2" stroke-width="14"/></g>
  <g><circle cx="1065" cy="18" r="105" fill="url(#ball)"/><path d="M1000-77Q1102-1 1000 98M1130-77Q1028-1 1130 98" fill="none" stroke="#eeedcb" stroke-opacity=".65" stroke-width="5"/></g>
</svg>
